HIERARCHY
ROOT mixamorig:Hips
{
	OFFSET 0.000000 201.639420 0.000000
	CHANNELS 6 Xposition Yposition Zposition Xrotation Yrotation Zrotation
	JOINT mixamorig:Spine
	{
		OFFSET 0.006200 19.524994 -2.481800
		CHANNELS 3 Xrotation Yrotation Zrotation
		JOINT mixamorig:Spine1
		{
			OFFSET -0.000900 22.835007 -2.825400
			CHANNELS 3 Xrotation Yrotation Zrotation
			JOINT mixamorig:Spine2
			{
				OFFSET -0.020600 26.552490 -3.193300
				CHANNELS 3 Xrotation Yrotation Zrotation
				JOINT mixamorig:Neck
				{
					OFFSET -0.060000 30.701813 1.352200
					CHANNELS 3 Xrotation Yrotation Zrotation
					JOINT mixamorig:Head
					{
						OFFSET -0.087200 22.547607 3.670900
						CHANNELS 3 Xrotation Yrotation Zrotation
						JOINT mixamorig:HeadTop_End
						{
							OFFSET -0.830600 40.355194 7.893500
							CHANNELS 3 Xrotation Yrotation Zrotation
							End Site
							{
								OFFSET 0.000000 30.592346 0.000000
							}
						}
						JOINT mixamorig:RightEye
						{
							OFFSET -6.302100 18.118591 16.197100
							CHANNELS 3 Xrotation Yrotation Zrotation
							End Site
							{
								OFFSET 0.000000 30.592346 0.000000
							}
						}
						JOINT mixamorig:LeftEye
						{
							OFFSET 6.741500 18.382690 16.401899
							CHANNELS 3 Xrotation Yrotation Zrotation
							End Site
							{
								OFFSET 0.000000 30.592346 0.000000
							}
						}
					}
				}
				JOINT mixamorig:LeftShoulder
				{
					OFFSET 11.924900 18.230499 1.425400
					CHANNELS 3 Xrotation Yrotation Zrotation
					JOINT mixamorig:LeftArm
					{
						OFFSET 25.435989 -0.697632 -5.229300
						CHANNELS 3 Xrotation Yrotation Zrotation
						JOINT mixamorig:LeftForeArm
						{
							OFFSET 54.684776 0.000000 0.000000
							CHANNELS 3 Xrotation Yrotation Zrotation
							JOINT mixamorig:LeftHand
							{
								OFFSET 55.098175 0.000000 0.000000
								CHANNELS 3 Xrotation Yrotation Zrotation
								JOINT mixamorig:LeftHandMiddle1
								{
									OFFSET 23.369751 0.000000 0.000000
									CHANNELS 3 Xrotation Yrotation Zrotation
									JOINT mixamorig:LeftHandMiddle2
									{
										OFFSET 6.378677 0.000000 0.000000
										CHANNELS 3 Xrotation Yrotation Zrotation
										JOINT mixamorig:LeftHandMiddle3
										{
											OFFSET 6.148331 0.000000 0.000000
											CHANNELS 3 Xrotation Yrotation Zrotation
											JOINT mixamorig:LeftHandMiddle4
											{
												OFFSET 6.582504 0.000000 0.000000
												CHANNELS 3 Xrotation Yrotation Zrotation
												End Site
												{
													OFFSET -1.168900 6.395691 1.028606
												}
											}
										}
									}
								}
								JOINT mixamorig:LeftHandThumb1
								{
									OFFSET 7.235672 -3.848206 5.434273
									CHANNELS 3 Xrotation Yrotation Zrotation
									JOINT mixamorig:LeftHandThumb2
									{
										OFFSET 6.568451 -3.792297 3.792300
										CHANNELS 3 Xrotation Yrotation Zrotation
										JOINT mixamorig:LeftHandThumb3
										{
											OFFSET 6.063080 -3.500519 3.500518
											CHANNELS 3 Xrotation Yrotation Zrotation
											JOINT mixamorig:LeftHandThumb4
											{
												OFFSET 4.793182 -2.767334 2.767349
												CHANNELS 3 Xrotation Yrotation Zrotation
												End Site
												{
													OFFSET 0.101639 6.054260 1.275483
												}
											}
										}
									}
								}
								JOINT mixamorig:LeftHandIndex1
								{
									OFFSET 23.101074 -0.309540 4.992809
									CHANNELS 3 Xrotation Yrotation Zrotation
									JOINT mixamorig:LeftHandIndex2
									{
										OFFSET 6.226883 0.000000 0.000000
										CHANNELS 3 Xrotation Yrotation Zrotation
										JOINT mixamorig:LeftHandIndex3
										{
											OFFSET 6.094330 0.000000 0.000000
											CHANNELS 3 Xrotation Yrotation Zrotation
											JOINT mixamorig:LeftHandIndex4
											{
												OFFSET 5.482605 0.000000 0.000000
												CHANNELS 3 Xrotation Yrotation Zrotation
												End Site
												{
													OFFSET -1.427902 5.233032 0.797164
												}
											}
										}
									}
								}
								JOINT mixamorig:LeftHandRing1
								{
									OFFSET 22.299240 0.021149 -3.964172
									CHANNELS 3 Xrotation Yrotation Zrotation
									JOINT mixamorig:LeftHandRing2
									{
										OFFSET 6.321869 0.000000 0.000000
										CHANNELS 3 Xrotation Yrotation Zrotation
										JOINT mixamorig:LeftHandRing3
										{
											OFFSET 5.899796 0.000000 0.000000
											CHANNELS 3 Xrotation Yrotation Zrotation
											JOINT mixamorig:LeftHandRing4
											{
												OFFSET 6.517899 0.000000 0.000000
												CHANNELS 3 Xrotation Yrotation Zrotation
												End Site
												{
													OFFSET -1.637299 6.232208 0.980890
												}
											}
										}
									}
								}
								JOINT mixamorig:LeftHandPinky1
								{
									OFFSET 20.463791 -0.302338 -8.562233
									CHANNELS 3 Xrotation Yrotation Zrotation
									JOINT mixamorig:LeftHandPinky2
									{
										OFFSET 6.908646 0.000000 0.000000
										CHANNELS 3 Xrotation Yrotation Zrotation
										JOINT mixamorig:LeftHandPinky3
										{
											OFFSET 4.622849 0.000000 0.000000
											CHANNELS 3 Xrotation Yrotation Zrotation
											JOINT mixamorig:LeftHandPinky4
											{
												OFFSET 5.216080 0.000000 0.000000
												CHANNELS 3 Xrotation Yrotation Zrotation
												End Site
												{
													OFFSET -0.606308 5.116241 0.814926
												}
											}
										}
									}
								}
							}
						}
					}
				}
				JOINT mixamorig:RightShoulder
				{
					OFFSET -12.001300 18.284088 1.348900
					CHANNELS 3 Xrotation Yrotation Zrotation
					JOINT mixamorig:RightArm
					{
						OFFSET -25.308500 -0.751312 -5.164599
						CHANNELS 3 Xrotation Yrotation Zrotation
						JOINT mixamorig:RightForeArm
						{
							OFFSET -54.684429 0.000000 0.000000
							CHANNELS 3 Xrotation Yrotation Zrotation
							JOINT mixamorig:RightHand
							{
								OFFSET -55.150291 0.000000 0.000000
								CHANNELS 3 Xrotation Yrotation Zrotation
								JOINT mixamorig:RightHandMiddle1
								{
									OFFSET -23.317566 0.000000 0.000000
									CHANNELS 3 Xrotation Yrotation Zrotation
									JOINT mixamorig:RightHandMiddle2
									{
										OFFSET -6.378403 0.000000 0.000000
										CHANNELS 3 Xrotation Yrotation Zrotation
										JOINT mixamorig:RightHandMiddle3
										{
											OFFSET -6.148193 0.000000 0.000000
											CHANNELS 3 Xrotation Yrotation Zrotation
											JOINT mixamorig:RightHandMiddle4
											{
												OFFSET -6.583389 0.000000 0.000000
												CHANNELS 3 Xrotation Yrotation Zrotation
												End Site
												{
													OFFSET 1.171692 6.395905 1.029786
												}
											}
										}
									}
								}
								JOINT mixamorig:RightHandThumb1
								{
									OFFSET -7.190521 -3.860474 5.435846
									CHANNELS 3 Xrotation Yrotation Zrotation
									JOINT mixamorig:RightHandThumb2
									{
										OFFSET -6.567429 -3.791718 3.791708
										CHANNELS 3 Xrotation Yrotation Zrotation
										JOINT mixamorig:RightHandThumb3
										{
											OFFSET -6.062469 -3.500153 3.500166
											CHANNELS 3 Xrotation Yrotation Zrotation
											JOINT mixamorig:RightHandThumb4
											{
												OFFSET -4.792618 -2.767029 2.767022
												CHANNELS 3 Xrotation Yrotation Zrotation
												End Site
												{
													OFFSET -0.100327 6.053253 1.276754
												}
											}
										}
									}
								}
								JOINT mixamorig:RightHandIndex1
								{
									OFFSET -23.048981 -0.310791 4.992554
									CHANNELS 3 Xrotation Yrotation Zrotation
									JOINT mixamorig:RightHandIndex2
									{
										OFFSET -6.227539 0.000000 0.000000
										CHANNELS 3 Xrotation Yrotation Zrotation
										JOINT mixamorig:RightHandIndex3
										{
											OFFSET -6.095047 0.000000 0.000000
											CHANNELS 3 Xrotation Yrotation Zrotation
											JOINT mixamorig:RightHandIndex4
											{
												OFFSET -5.484772 0.000000 0.000000
												CHANNELS 3 Xrotation Yrotation Zrotation
												End Site
												{
													OFFSET 1.420593 5.237305 0.797056
												}
											}
										}
									}
								}
								JOINT mixamorig:RightHandRing1
								{
									OFFSET -22.246323 0.020569 -3.963762
									CHANNELS 3 Xrotation Yrotation Zrotation
									JOINT mixamorig:RightHandRing2
									{
										OFFSET -6.322128 0.000000 0.000000
										CHANNELS 3 Xrotation Yrotation Zrotation
										JOINT mixamorig:RightHandRing3
										{
											OFFSET -5.900024 0.000000 0.000000
											CHANNELS 3 Xrotation Yrotation Zrotation
											JOINT mixamorig:RightHandRing4
											{
												OFFSET -6.518356 0.000000 0.000000
												CHANNELS 3 Xrotation Yrotation Zrotation
												End Site
												{
													OFFSET 1.636398 6.232697 0.982186
												}
											}
										}
									}
								}
								JOINT mixamorig:RightHandPinky1
								{
									OFFSET -20.411011 -0.303314 -8.561701
									CHANNELS 3 Xrotation Yrotation Zrotation
									JOINT mixamorig:RightHandPinky2
									{
										OFFSET -6.907349 0.000000 0.000000
										CHANNELS 3 Xrotation Yrotation Zrotation
										JOINT mixamorig:RightHandPinky3
										{
											OFFSET -4.623840 0.000000 0.000000
											CHANNELS 3 Xrotation Yrotation Zrotation
											JOINT mixamorig:RightHandPinky4
											{
												OFFSET -5.218353 0.000000 0.000000
												CHANNELS 3 Xrotation Yrotation Zrotation
												End Site
												{
													OFFSET 0.602097 5.118835 0.816273
												}
											}
										}
									}
								}
							}
						}
					}
				}
			}
		}
	}
	JOINT mixamorig:LeftUpLeg
	{
		OFFSET 18.168400 -13.561905 -0.039000
		CHANNELS 3 Xrotation Yrotation Zrotation
		JOINT mixamorig:LeftLeg
		{
			OFFSET 0.577358 -80.825211 -3.695000
			CHANNELS 3 Xrotation Yrotation Zrotation
			JOINT mixamorig:LeftFoot
			{
				OFFSET -0.577356 -83.370262 -6.520700
				CHANNELS 3 Xrotation Yrotation Zrotation
				JOINT mixamorig:LeftToeBase
				{
					OFFSET 0.750401 -20.798306 25.135401
					CHANNELS 3 Xrotation Yrotation Zrotation
					JOINT mixamorig:LeftToe_End
					{
						OFFSET -0.000500 0.001200 19.917799
						CHANNELS 3 Xrotation Yrotation Zrotation
						End Site
						{
							OFFSET 0.000000 19.917805 0.000000
						}
					}
				}
			}
		}
	}
	JOINT mixamorig:RightUpLeg
	{
		OFFSET -18.162500 -13.585098 -0.041000
		CHANNELS 3 Xrotation Yrotation Zrotation
		JOINT mixamorig:RightLeg
		{
			OFFSET -0.595024 -80.945297 -3.631900
			CHANNELS 3 Xrotation Yrotation Zrotation
			JOINT mixamorig:RightFoot
			{
				OFFSET 0.595024 -83.218193 -6.561200
				CHANNELS 3 Xrotation Yrotation Zrotation
				JOINT mixamorig:RightToeBase
				{
					OFFSET -0.753601 -20.807106 25.115000
					CHANNELS 3 Xrotation Yrotation Zrotation
					JOINT mixamorig:RightToe_End
					{
						OFFSET 0.000299 0.001700 19.918200
						CHANNELS 3 Xrotation Yrotation Zrotation
						End Site
						{
							OFFSET 0.000000 19.918203 0.000000
						}
					}
				}
			}
		}
	}
}
MOTION
Frames: 5
Frame Time: 0.033333
-166.369186 178.321320 39.919273 27.885748 -58.593058 25.629076 13.827710 6.326139 3.250073 3.148965 -1.522438 3.552863 2.951913 -1.334687 3.724179 -2.997446 2.820621 1.055820 11.458359 19.427894 1.194253 0.000002 -0.000003 0.000001 0.000002 -0.000003 0.000001 0.000002 -0.000003 0.000001 0.313253 -0.700554 -1.475563 -50.089756 15.237180 -51.608602 -0.004524 -93.977427 -0.004495 -115.925235 -14.621142 40.710444 0.405914 5.507006 -52.453175 3.387131 5.308607 -65.057470 0.282020 1.797458 -17.832369 0.000002 0.000002 -0.000001 4.709216 9.560378 3.111997 19.473199 -1.474883 7.636920 -4.536176 -9.613124 1.492981 0.000000 -0.000001 0.000003 -0.212817 3.933720 -36.747135 2.942134 5.078908 -60.144610 0.513672 2.400804 -24.150516 -0.000000 0.000000 0.000000 -0.074367 5.736790 -61.061427 4.055027 5.569513 -72.094921 0.582667 2.548964 -25.748013 -0.000006 -0.000000 0.000002 -6.565571 4.545151 -72.425222 3.299608 5.267198 -64.107828 0.175347 1.424018 -14.038887 -0.000003 -0.000006 0.000003 0.728437 12.417954 9.931647 -34.884119 67.513558 43.807334 -0.000434 97.617986 0.000464 -63.610132 -22.813788 -12.268427 3.465555 -7.220649 51.799342 6.351579 -4.338633 111.356645 0.267889 -1.558252 19.508017 0.000004 -0.000001 0.000001 8.472890 -4.973663 11.113334 21.662080 -18.249994 -18.366329 -0.589854 -50.122752 -32.569856 -0.000002 -0.000002 -0.000000 -0.907957 1.689559 12.286969 0.748136 -2.533435 32.898293 0.617353 -2.319110 29.810859 0.000001 -0.000000 0.000001 -3.370627 -2.603465 57.134652 5.440430 -4.590965 99.692779 1.689087 -3.590446 50.377419 0.000000 -0.000000 -0.000007 -3.992089 -3.315938 64.662466 4.053255 -4.617902 82.540924 2.310663 -4.023944 59.717792 -0.000002 -0.000001 0.000000 -22.925083 -10.779008 9.881763 70.894147 1.213580 10.045677 12.221170 -1.466044 -26.738977 9.840027 0.000005 0.000001 0.000001 0.000000 0.000001 -49.740757 -24.149208 -7.276456 59.285776 9.555902 -1.523911 -30.820313 -15.642170 -12.728067 4.833485 -0.000020 0.000008 0.000000 0.000000 0.000000 
-181.033844 177.521454 40.335911 25.432705 -58.461276 23.789574 14.820264 6.931160 2.951444 3.112655 -1.410198 3.571842 2.897087 -1.212607 3.745061 -3.246704 2.875551 0.862008 11.097951 19.378999 0.743940 0.000003 -0.000001 -0.000000 0.000003 -0.000001 -0.000000 0.000003 -0.000001 -0.000000 0.279387 -0.507146 -1.264090 -51.047823 13.732695 -51.592237 -0.004987 -93.119527 -0.005042 -114.876555 -13.553339 41.422768 0.405918 5.507009 -52.453169 3.387128 5.308608 -65.057470 0.282020 1.797458 -17.832369 0.000002 0.000001 -0.000002 4.709212 9.560368 3.111994 19.473201 -1.474889 7.636922 -4.536180 -9.613127 1.492983 0.000002 -0.000003 0.000003 -0.212811 3.933711 -36.747125 2.942134 5.078907 -60.144604 0.513672 2.400804 -24.150518 -0.000002 0.000001 -0.000003 -0.074365 5.736791 -61.061420 4.055040 5.569522 -72.094928 0.582665 2.548963 -25.748008 -0.000004 -0.000003 0.000002 -6.565571 4.545126 -72.425202 3.299621 5.267210 -64.107828 0.175345 1.424019 -14.038880 -0.000004 -0.000004 0.000004 0.747229 12.057104 9.686597 -34.509268 67.350897 44.013135 0.000630 97.774342 -0.000594 -64.023673 -20.829418 -13.244889 3.461967 -7.218295 51.789103 6.347838 -4.340095 111.307256 0.266543 -1.554485 19.458895 0.000001 -0.000000 0.000001 8.466347 -4.968902 11.107049 21.659201 -18.245447 -18.367173 -0.597626 -50.102115 -32.567561 -0.000002 -0.000002 0.000002 -0.908793 1.689145 12.297080 0.748132 -2.533436 32.898296 0.617253 -2.318897 29.807912 0.000002 -0.000002 0.000000 -3.369145 -2.603266 57.126169 5.440465 -4.590972 99.693127 1.689120 -3.590451 50.377758 -0.000003 0.000000 -0.000002 -3.992379 -3.315104 64.657788 4.053609 -4.617986 82.545684 2.310995 -4.024155 59.722546 0.000003 0.000001 0.000001 -33.545067 -14.726123 2.520546 83.146160 6.506784 9.719503 6.888232 -0.320892 -20.164262 8.078594 0.000016 -0.000003 0.000000 -0.000001 0.000001 -43.240705 -25.142392 -5.874078 59.899345 9.917428 -0.974754 -33.541925 -15.692073 -13.388164 -0.620375 -0.002310 0.140321 0.000000 -0.000000 0.000000 
-195.667816 176.438278 40.912098 23.001845 -57.464314 22.338289 15.288171 7.107608 2.438315 2.971422 -1.324477 3.452104 2.752474 -1.132651 3.618069 -3.485521 2.705588 1.150515 11.169021 18.950737 0.426707 -0.000000 0.000001 -0.000003 -0.000000 0.000001 -0.000003 -0.000000 0.000001 -0.000003 0.239210 -0.337657 -1.103352 -52.282387 10.789633 -51.608800 -0.002084 -91.275499 -0.002296 -114.196337 -12.906200 41.874869 0.405917 5.507009 -52.453169 3.387124 5.308611 -65.057477 0.282019 1.797457 -17.832371 -0.000001 0.000001 -0.000002 4.709208 9.560381 3.111987 19.473194 -1.474889 7.636926 -4.536179 -9.613126 1.492979 0.000000 0.000002 0.000000 -0.212822 3.933710 -36.747131 2.942135 5.078910 -60.144610 0.513671 2.400801 -24.150519 -0.000000 0.000000 -0.000003 -0.074366 5.736789 -61.061420 4.055046 5.569504 -72.094901 0.582668 2.548963 -25.748012 0.000001 -0.000000 0.000006 -6.565581 4.545152 -72.425236 3.299622 5.267221 -64.107828 0.175347 1.424022 -14.038880 -0.000005 -0.000002 0.000003 0.784527 10.838535 9.031942 -36.244593 67.106848 46.340989 -0.000239 97.545415 0.000241 -64.470279 -18.958973 -13.949857 3.458397 -7.215976 51.779012 6.344150 -4.341531 111.258420 0.265228 -1.550756 19.410373 -0.000001 0.000000 0.000001 8.459860 -4.964196 11.100877 21.656399 -18.240995 -18.368076 -0.605285 -50.081710 -32.565232 0.000000 0.000003 -0.000003 -0.909596 1.688740 12.307088 0.748133 -2.533437 32.898293 0.617153 -2.318683 29.805013 -0.000000 0.000003 -0.000000 -3.367672 -2.603042 57.117778 5.440481 -4.590963 99.693489 1.689151 -3.590474 50.378072 -0.000001 -0.000002 0.000002 -3.992679 -3.314294 64.653143 4.053990 -4.618034 82.550370 2.311329 -4.024346 59.727224 0.000003 0.000004 -0.000004 -45.965732 -16.176827 -3.931173 91.503634 9.574131 7.236125 3.135085 2.301953 -14.289005 5.087927 0.000009 0.000007 0.000002 0.000001 0.000000 -37.901912 -26.906118 -6.174679 60.906354 9.664898 0.271832 -34.927730 -14.891624 -14.200955 -8.296870 0.000020 -0.000000 0.000000 -0.000000 -0.000000 
-211.289734 175.356369 41.952324 20.378081 -55.988847 20.407885 15.531439 6.945170 2.422334 2.943247 -1.332658 3.350172 2.727933 -1.142821 3.518279 -3.680848 2.678944 1.065696 10.322262 18.581796 1.220871 0.000001 -0.000001 -0.000000 0.000001 -0.000001 -0.000000 0.000001 -0.000001 -0.000000 0.208178 -0.199984 -0.973526 -52.880192 8.215206 -51.053970 0.007213 -90.147343 0.007817 -114.742889 -12.881638 42.172522 0.405918 5.507013 -52.453165 3.387131 5.308607 -65.057477 0.282016 1.797461 -17.832369 -0.000002 -0.000003 0.000003 4.709208 9.560381 3.111985 19.473195 -1.474889 7.636927 -4.536180 -9.613125 1.492982 0.000004 -0.000001 0.000001 -0.212821 3.933690 -36.747125 2.942136 5.078909 -60.144604 0.513672 2.400805 -24.150518 -0.000005 -0.000002 -0.000001 -0.074366 5.736793 -61.061413 4.055044 5.569525 -72.094887 0.582662 2.548967 -25.748017 -0.000002 0.000002 -0.000003 -6.565568 4.545140 -72.425215 3.299626 5.267212 -64.107828 0.175334 1.424010 -14.038875 -0.000005 0.000004 -0.000002 0.798911 9.929216 8.575727 -37.419567 67.090278 47.613092 0.001047 98.010278 -0.001020 -65.245082 -17.878047 -15.475066 3.454918 -7.213685 51.769101 6.340508 -4.342954 111.210356 0.263935 -1.547102 19.362587 0.000005 -0.000000 -0.000000 8.453495 -4.959583 11.094790 21.653585 -18.236590 -18.368928 -0.612835 -50.061626 -32.562944 0.000000 -0.000003 0.000001 -0.910404 1.688345 12.316947 0.748132 -2.533437 32.898296 0.617026 -2.318494 29.802137 -0.000000 -0.000000 0.000000 -3.366240 -2.602828 57.109493 5.440514 -4.590966 99.693865 1.689154 -3.590487 50.378403 -0.000002 -0.000000 0.000000 -3.992971 -3.313513 64.648574 4.054376 -4.618098 82.555001 2.311658 -4.024513 59.731869 0.000002 0.000000 0.000001 -56.630417 -13.559794 -8.476506 93.379969 4.871064 4.967965 3.186477 0.110532 -2.281853 -10.023027 -0.000004 0.000026 0.000000 -0.000001 -0.000000 -30.778731 -30.463682 -6.504689 59.634300 9.217794 1.923271 -35.997091 -13.091932 -14.681039 -13.945911 -0.000025 0.000005 0.000000 -0.000000 -0.000000 
-227.601517 175.829163 42.562489 18.542078 -54.876294 20.575696 16.291128 6.960145 0.522236 3.103523 -1.222056 3.082125 2.892824 -1.037366 3.260790 -4.592359 2.657610 0.637634 10.368823 17.507120 1.778280 0.000003 -0.000001 0.000000 0.000003 -0.000001 0.000000 0.000003 -0.000001 0.000000 0.191652 -0.033502 -0.820183 -53.971721 5.625169 -50.765374 0.000111 -89.129891 -0.000086 -115.560790 -12.786896 41.931296 0.405913 5.507015 -52.453172 3.387131 5.308610 -65.057470 0.282017 1.797460 -17.832365 -0.000000 0.000001 0.000001 4.709213 9.560387 3.111989 19.473199 -1.474890 7.636927 -4.536189 -9.613128 1.492985 0.000000 -0.000001 0.000002 -0.212815 3.933727 -36.747135 2.942134 5.078905 -60.144610 0.513671 2.400804 -24.150514 -0.000003 -0.000000 -0.000001 -0.074364 5.736796 -61.061420 4.055023 5.569513 -72.094942 0.582663 2.548965 -25.748013 -0.000004 0.000001 0.000003 -6.565577 4.545131 -72.425222 3.299617 5.267212 -64.107828 0.175356 1.424021 -14.038887 -0.000004 0.000000 0.000001 0.807941 7.830494 7.365147 -41.953358 67.166653 52.871521 -0.000821 98.417193 0.000783 -64.554966 -16.922369 -16.573362 3.451470 -7.211443 51.759358 6.336911 -4.344333 111.163207 0.262688 -1.543509 19.315690 0.000000 -0.000001 -0.000001 8.447246 -4.955032 11.088823 21.650861 -18.232282 -18.369787 -0.620242 -50.041934 -32.560714 0.000000 0.000000 0.000003 -0.911199 1.687964 12.326623 0.748134 -2.533436 32.898293 0.616921 -2.318280 29.799323 0.000001 0.000002 -0.000001 -3.364838 -2.602635 57.101416 5.440545 -4.590949 99.694186 1.689169 -3.590521 50.378724 -0.000001 -0.000002 0.000002 -3.993251 -3.312718 64.644073 4.054743 -4.618137 82.559563 2.311981 -4.024698 59.736418 0.000002 0.000001 0.000002 -65.066335 -7.018860 -10.030818 88.848685 0.289999 3.838947 -3.204212 1.004386 -11.602138 -0.170034 -0.000026 0.000006 -0.000002 0.000000 0.000001 -22.671203 -32.760709 -5.994151 55.370271 7.502834 2.698283 -33.797627 -11.333264 -13.726471 -21.206564 0.000032 0.000010 -0.000000 -0.000001 -0.000000 
